<svg width="19" height="19" viewBox="0 0 19 19" fill="none" xmlns="http://www.w3.org/2000/svg">
<path fill-rule="evenodd" clip-rule="evenodd" d="M8.75283 0.0192734C6.8393 0.1789 5.05902 0.884023 3.53958 2.0842C3.18754 2.36222 2.35668 3.19292 2.07859 3.54489C0.978639 4.93688 0.30215 6.52422 0.0642226 8.27153C-0.0214075 8.90037 -0.0214075 10.0961 0.0642226 10.725C0.352085 12.8389 1.25546 14.6747 2.74564 16.174C3.31151 16.7434 3.60131 16.9853 4.20886 17.3956C6.99862 19.2793 10.6312 19.5223 13.68 18.0291C16.4377 16.6785 18.3781 14.0637 18.8793 11.0224C19.2546 8.74483 18.744 6.28538 17.4977 4.36819C16.9762 3.56582 16.1216 2.61356 15.4433 2.07888C14.0809 1.00506 12.4183 0.294847 10.7584 0.0777114C10.2089 0.00585346 9.2491 -0.0221388 8.75283 0.0192734ZM14.2022 6.3527C14.2314 6.11241 14.1707 5.92319 14.025 5.80063C13.8681 5.66858 13.6495 5.67825 13.2495 5.8349C12.9048 5.96992 8.69576 7.59406 5.99906 8.6326C5.06858 8.99093 4.24229 9.31706 4.16286 9.35732C3.82882 9.52657 3.74758 9.74635 3.95468 9.92058C4.02068 9.97608 4.24649 10.071 4.50312 10.151C4.74305 10.2259 5.30606 10.4016 5.75425 10.5416C6.20244 10.6816 6.58728 10.7856 6.60944 10.7728C6.6316 10.7599 7.88352 9.97341 9.39143 9.02494C11.0766 7.96506 12.1727 7.29778 12.2359 7.29343C12.3084 7.28845 12.3386 7.30395 12.3386 7.34618C12.3386 7.37908 11.3514 8.29696 10.1448 9.38594C8.93829 10.4749 7.93851 11.3773 7.92315 11.3912C7.90776 11.4052 7.86228 11.8925 7.82209 12.4741C7.7819 13.0558 7.74215 13.6028 7.73378 13.6896C7.71873 13.846 7.7198 13.8476 7.83856 13.8476C7.98859 13.8476 8.16145 13.7221 8.52743 13.3471C8.68081 13.19 8.93558 12.9442 9.0936 12.8008L9.38087 12.5402L10.5792 13.424C11.7335 14.2753 11.9319 14.4002 12.1341 14.4035C12.2667 14.4056 12.4548 14.2798 12.5267 14.1408C12.5868 14.0245 14.1563 6.72905 14.2022 6.3527Z" fill="white"/>
<path d="M14.025 5.80063C14.1707 5.92319 14.2314 6.11241 14.2022 6.3527C14.1563 6.72905 12.5868 14.0245 12.5267 14.1408C12.4548 14.2798 12.2667 14.4056 12.1341 14.4035C11.9319 14.4002 11.7335 14.2753 10.5792 13.424L9.38087 12.5402L9.0936 12.8008C8.93558 12.9442 8.68081 13.19 8.52743 13.3471C8.16145 13.7221 7.98859 13.8476 7.83856 13.8476C7.7198 13.8476 7.71873 13.846 7.73378 13.6896C7.74215 13.6028 7.7819 13.0558 7.82209 12.4741C7.86228 11.8925 7.90776 11.4052 7.92315 11.3912C7.93851 11.3773 8.93829 10.4749 10.1448 9.38594C11.3514 8.29696 12.3386 7.37908 12.3386 7.34618C12.3386 7.30395 12.3084 7.28845 12.2359 7.29343C12.1727 7.29778 11.0766 7.96506 9.39143 9.02494C7.88352 9.97341 6.6316 10.7599 6.60944 10.7728C6.58728 10.7856 6.20244 10.6816 5.75425 10.5416C5.30606 10.4016 4.74305 10.2259 4.50312 10.151C4.24649 10.071 4.02068 9.97608 3.95468 9.92058C3.74758 9.74635 3.82882 9.52657 4.16286 9.35732C4.24229 9.31706 5.06858 8.99093 5.99906 8.6326C8.69576 7.59406 12.9048 5.96992 13.2495 5.8349C13.6495 5.67825 13.8681 5.66858 14.025 5.80063Z" fill="white"/>
<path fill-rule="evenodd" clip-rule="evenodd" d="M8.75283 0.0192734C6.8393 0.1789 5.05902 0.884023 3.53958 2.0842C3.18754 2.36222 2.35668 3.19292 2.07859 3.54489C0.978639 4.93688 0.30215 6.52422 0.0642226 8.27153C-0.0214075 8.90037 -0.0214075 10.0961 0.0642226 10.725C0.352085 12.8389 1.25546 14.6747 2.74564 16.174C3.31151 16.7434 3.60131 16.9853 4.20886 17.3956C6.99862 19.2793 10.6312 19.5223 13.68 18.0291C16.4377 16.6785 18.3781 14.0637 18.8793 11.0224C19.2546 8.74483 18.744 6.28538 17.4977 4.36819C16.9762 3.56582 16.1216 2.61356 15.4433 2.07888C14.0809 1.00506 12.4183 0.294847 10.7584 0.0777114C10.2089 0.00585346 9.2491 -0.0221388 8.75283 0.0192734ZM14.025 5.80063C14.1707 5.92319 14.2314 6.11241 14.2022 6.3527C14.1563 6.72905 12.5868 14.0245 12.5267 14.1408C12.4548 14.2798 12.2667 14.4056 12.1341 14.4035C11.9319 14.4002 11.7335 14.2753 10.5792 13.424L9.38087 12.5402L9.0936 12.8008C8.93558 12.9442 8.68081 13.19 8.52743 13.3471C8.16145 13.7221 7.98859 13.8476 7.83856 13.8476C7.7198 13.8476 7.71873 13.846 7.73378 13.6896C7.74215 13.6028 7.7819 13.0558 7.82209 12.4741C7.86228 11.8925 7.90776 11.4052 7.92315 11.3912C7.93851 11.3773 8.93829 10.4749 10.1448 9.38594C11.3514 8.29696 12.3386 7.37908 12.3386 7.34618C12.3386 7.30395 12.3084 7.28845 12.2359 7.29343C12.1727 7.29778 11.0766 7.96506 9.39143 9.02494C7.88352 9.97341 6.6316 10.7599 6.60944 10.7728C6.58728 10.7856 6.20244 10.6816 5.75425 10.5416C5.30606 10.4016 4.74305 10.2259 4.50312 10.151C4.24649 10.071 4.02068 9.97608 3.95468 9.92058C3.74758 9.74635 3.82882 9.52657 4.16286 9.35732C4.24229 9.31706 5.06858 8.99093 5.99906 8.6326C8.69576 7.59406 12.9048 5.96992 13.2495 5.8349C13.6495 5.67825 13.8681 5.66858 14.025 5.80063Z" fill="#039BE5"/>
</svg>
