<svg width="19" height="19" viewBox="0 0 19 19" fill="none" xmlns="http://www.w3.org/2000/svg">
<path fill-rule="evenodd" clip-rule="evenodd" d="M11.209 3.65114C11.9995 3.75274 12.4823 3.85116 12.768 3.96895C13.5931 4.30917 14.4572 5.14126 14.8355 5.9598C15.1452 6.63009 15.3295 8.36112 15.2226 9.59559C15.1664 10.2444 15.0256 11.0854 14.9246 11.3759C14.6192 12.2545 13.6696 13.2221 12.7526 13.5893C12.1682 13.8233 11.1491 13.9561 9.71463 13.9851L8.64739 14.0067L8.01032 14.6717C7.65997 15.0374 7.32265 15.3628 7.26081 15.3948C7.03567 15.5112 6.73033 15.407 6.59083 15.1662C6.56446 15.1206 6.54065 14.8209 6.52925 14.3916L6.51068 13.6913L6.28412 13.6062C5.82365 13.4333 5.31664 13.0782 4.88454 12.626C4.20865 11.9186 3.97444 11.3504 3.81139 10.0227C3.74889 9.51363 3.74851 8.03487 3.81076 7.53448C3.97663 6.20134 4.2088 5.63841 4.88454 4.93118C5.50743 4.27931 6.14009 3.92246 6.92328 3.78123C7.25454 3.72147 7.98239 3.6303 8.49771 3.58395C8.8995 3.54782 10.7648 3.59402 11.209 3.65114ZM6.71117 4.91264C6.97063 4.82244 7.78498 4.69201 8.40486 4.6414C9.3514 4.56408 10.5073 4.60515 11.5219 4.75214C12.1182 4.83852 12.4006 4.92416 12.7128 5.11333C13.2003 5.40876 13.7937 6.09286 13.9354 6.52291C14.0297 6.8086 14.1424 7.54778 14.1875 8.17488C14.251 9.05759 14.1286 10.4482 13.9361 11.0323C13.7557 11.5796 13.0718 12.2842 12.4307 12.5835C12.0435 12.7641 10.9996 12.9078 9.76195 12.9508L9.06382 12.9751L8.10406 13.9592C7.47118 14.6081 7.1186 14.9433 7.06891 14.9433C6.99507 14.9433 6.99332 14.9207 6.98367 13.8433L6.97386 12.7432L6.76082 12.6652C6.2397 12.4742 5.64474 11.9925 5.30776 11.4887C5.08948 11.1623 5.03088 10.9953 4.93323 10.4212C4.73405 9.24973 4.74742 8.05994 4.97271 6.90315C5.07923 6.35627 5.22769 6.08885 5.67501 5.6383C6.07817 5.23221 6.36033 5.0346 6.71117 4.91264Z" fill="white"/>
<path fill-rule="evenodd" clip-rule="evenodd" d="M3.63226 2.03096C5.11983 0.885501 6.83455 0.203961 8.64628 0.0380697C9.7166 -0.059935 10.796 0.0311622 11.9014 0.312773C13.4623 0.710399 14.9155 1.53094 16.1071 2.68754C17.8242 4.35425 18.8019 6.46672 18.9781 8.89066C19.0749 10.2222 18.8477 11.6979 18.3531 12.9507C17.8565 14.2085 17.1854 15.2301 16.2255 16.1899C15.4285 16.9868 14.7752 17.4678 13.8274 17.9556C10.8978 19.4634 7.35664 19.3309 4.54648 17.6082C3.68318 17.079 2.60836 16.124 2.02796 15.3704C0.818695 13.8003 0.160633 12.0747 0.0205009 10.1062C-0.0683029 8.85916 0.134523 7.43058 0.568217 6.24795C0.734719 5.79387 1.18984 4.86084 1.4261 4.48924C1.9691 3.63513 2.90872 2.58809 3.63226 2.03096ZM12.768 3.96895C12.4823 3.85116 11.9995 3.75274 11.209 3.65114C10.7648 3.59402 8.8995 3.54782 8.49771 3.58395C7.98239 3.6303 7.25454 3.72147 6.92328 3.78123C6.14009 3.92246 5.50743 4.27931 4.88454 4.93118C4.2088 5.63841 3.97663 6.20134 3.81076 7.53448C3.74851 8.03487 3.74889 9.51363 3.81139 10.0227C3.97444 11.3504 4.20865 11.9186 4.88454 12.626C5.31664 13.0782 5.82365 13.4333 6.28412 13.6062L6.51068 13.6913L6.52925 14.3916C6.54065 14.8209 6.56446 15.1206 6.59083 15.1662C6.73033 15.407 7.03567 15.5112 7.26081 15.3948C7.32265 15.3628 7.65997 15.0374 8.01032 14.6717L8.64739 14.0067L9.71463 13.9851C11.1491 13.9561 12.1682 13.8233 12.7526 13.5893C13.6696 13.2221 14.6192 12.2545 14.9246 11.3759C15.0256 11.0854 15.1664 10.2444 15.2226 9.59559C15.3295 8.36112 15.1452 6.63009 14.8355 5.9598C14.4572 5.14126 13.5931 4.30917 12.768 3.96895Z" fill="white"/>
<path fill-rule="evenodd" clip-rule="evenodd" d="M8.40486 4.6414C7.78498 4.69201 6.97063 4.82244 6.71117 4.91264C6.36033 5.0346 6.07817 5.23221 5.67501 5.6383C5.22769 6.08885 5.07923 6.35627 4.97271 6.90315C4.74742 8.05994 4.73405 9.24973 4.93323 10.4212C5.03088 10.9953 5.08948 11.1623 5.30776 11.4887C5.64474 11.9925 6.2397 12.4742 6.76082 12.6652L6.97386 12.7432L6.98367 13.8433C6.99332 14.9207 6.99507 14.9433 7.06891 14.9433C7.1186 14.9433 7.47118 14.6081 8.10406 13.9592L9.06382 12.9751L9.76195 12.9508C10.9996 12.9078 12.0435 12.7641 12.4307 12.5835C13.0718 12.2842 13.7557 11.5796 13.9361 11.0323C14.1286 10.4482 14.251 9.05759 14.1875 8.17488C14.1424 7.54778 14.0297 6.8086 13.9354 6.52291C13.7937 6.09286 13.2003 5.40876 12.7128 5.11333C12.4006 4.92416 12.1182 4.83852 11.5219 4.75214C10.5073 4.60515 9.3514 4.56408 8.40486 4.6414ZM12.0287 7.40157C11.6489 6.63287 10.9777 6.10515 10.1176 5.89893C9.74308 5.80917 9.38066 5.80278 9.29888 5.88452C9.15251 6.03092 9.27322 6.14734 9.60232 6.17724C10.3114 6.24163 10.8155 6.46635 11.2652 6.9186C11.7389 7.39507 11.9478 7.87901 12.007 8.63697C12.0277 8.90247 12.0493 8.9923 12.1043 9.04206C12.1637 9.0958 12.1907 9.09888 12.2731 9.0613L12.3713 9.01659L12.3468 8.65617C12.3103 8.11787 12.234 7.81699 12.0287 7.40157ZM8.59584 7.4494C8.56108 7.31099 8.07476 6.59971 7.85856 6.37113C7.67999 6.18229 7.64366 6.16041 7.50858 6.16041C7.12607 6.16041 6.49582 6.79223 6.49293 7.17864C6.492 7.30297 6.83436 8.12508 7.05873 8.53719C7.45305 9.26151 7.99085 9.95103 8.51629 10.406C9.11433 10.9238 10.2465 11.5864 10.9064 11.8048C11.1327 11.8797 11.1501 11.8804 11.3271 11.8216C11.6887 11.7015 12.1747 11.1284 12.1747 10.822C12.1747 10.7377 12.1289 10.6693 11.9763 10.5254C11.7331 10.2959 11.0246 9.80568 10.8738 9.76245C10.6911 9.71005 10.5389 9.78061 10.3135 10.0221C10.1179 10.2317 10.0947 10.2455 9.93655 10.2455C9.70282 10.2455 9.18022 9.97963 8.88008 9.70808C8.61605 9.46914 8.35001 9.08804 8.19706 8.72963C8.03761 8.35592 8.04738 8.30404 8.32791 8.03435C8.57411 7.79771 8.64461 7.64374 8.59584 7.4494ZM11.5616 8.06332C11.3939 7.35196 10.8523 6.81369 10.1148 6.62544C9.84901 6.55756 9.60611 6.55247 9.54509 6.61349C9.47924 6.67933 9.49097 6.82127 9.56551 6.86034C9.60124 6.87909 9.75285 6.91482 9.90238 6.93973C10.4191 7.02582 10.8893 7.34899 11.1007 7.76347C11.1906 7.93976 11.282 8.32209 11.2827 8.52526C11.2835 8.75834 11.428 8.86993 11.5592 8.7388C11.634 8.66401 11.635 8.37449 11.5616 8.06332ZM10.8666 8.24744C10.8389 7.86226 10.6746 7.60701 10.3443 7.43622C10.1898 7.35634 9.83022 7.32733 9.76979 7.38987C9.70242 7.45962 9.71289 7.60077 9.78836 7.63955C9.82409 7.65793 9.92359 7.68188 10.0095 7.6928C10.0953 7.70372 10.2185 7.75029 10.2831 7.7963C10.4116 7.88781 10.5383 8.12797 10.5396 8.28239C10.5401 8.33631 10.5711 8.4182 10.6085 8.4644C10.6623 8.53087 10.6982 8.54294 10.7805 8.52229C10.8838 8.49637 10.8843 8.49466 10.8666 8.24744Z" fill="white"/>
<path d="M7.85856 6.37113C8.07476 6.59971 8.56108 7.31099 8.59584 7.4494C8.64461 7.64374 8.57411 7.79771 8.32791 8.03435C8.04738 8.30404 8.03761 8.35592 8.19706 8.72963C8.35001 9.08804 8.61605 9.46914 8.88008 9.70808C9.18022 9.97963 9.70282 10.2455 9.93655 10.2455C10.0947 10.2455 10.1179 10.2317 10.3135 10.0221C10.5389 9.78061 10.6911 9.71005 10.8738 9.76245C11.0246 9.80568 11.7331 10.2959 11.9763 10.5254C12.1289 10.6693 12.1747 10.7377 12.1747 10.822C12.1747 11.1284 11.6887 11.7015 11.3271 11.8216C11.1501 11.8804 11.1327 11.8797 10.9064 11.8048C10.2465 11.5864 9.11433 10.9238 8.51629 10.406C7.99085 9.95103 7.45305 9.26151 7.05873 8.53719C6.83436 8.12508 6.492 7.30297 6.49293 7.17864C6.49582 6.79223 7.12607 6.16041 7.50858 6.16041C7.64366 6.16041 7.67999 6.18229 7.85856 6.37113Z" fill="white"/>
<path d="M10.1148 6.62544C10.8523 6.81369 11.3939 7.35196 11.5616 8.06332C11.635 8.37449 11.634 8.66401 11.5592 8.7388C11.428 8.86993 11.2835 8.75834 11.2827 8.52526C11.282 8.32209 11.1906 7.93976 11.1007 7.76347C10.8893 7.34899 10.4191 7.02582 9.90238 6.93973C9.75285 6.91482 9.60124 6.87909 9.56551 6.86034C9.49097 6.82127 9.47924 6.67933 9.54509 6.61349C9.60611 6.55247 9.84901 6.55756 10.1148 6.62544Z" fill="white"/>
<path d="M10.1176 5.89893C10.9777 6.10515 11.6489 6.63287 12.0287 7.40157C12.234 7.81699 12.3103 8.11787 12.3468 8.65617L12.3713 9.01659L12.2731 9.0613C12.1907 9.09888 12.1637 9.0958 12.1043 9.04206C12.0493 8.9923 12.0277 8.90247 12.007 8.63697C11.9478 7.87901 11.7389 7.39507 11.2652 6.9186C10.8155 6.46635 10.3114 6.24163 9.60232 6.17724C9.27322 6.14734 9.15251 6.03092 9.29888 5.88452C9.38066 5.80278 9.74308 5.80917 10.1176 5.89893Z" fill="white"/>
<path d="M10.3443 7.43622C10.6746 7.60701 10.8389 7.86226 10.8666 8.24744C10.8843 8.49466 10.8838 8.49637 10.7805 8.52229C10.6982 8.54294 10.6623 8.53087 10.6085 8.4644C10.5711 8.4182 10.5401 8.33631 10.5396 8.28239C10.5383 8.12797 10.4116 7.88781 10.2831 7.7963C10.2185 7.75029 10.0953 7.70372 10.0095 7.6928C9.92359 7.68188 9.82409 7.65793 9.78836 7.63955C9.71289 7.60077 9.70242 7.45962 9.76979 7.38987C9.83022 7.32733 10.1898 7.35634 10.3443 7.43622Z" fill="white"/>
<path fill-rule="evenodd" clip-rule="evenodd" d="M8.64628 0.0380697C6.83455 0.203961 5.11983 0.885501 3.63226 2.03096C2.90872 2.58809 1.9691 3.63513 1.4261 4.48924C1.18984 4.86084 0.734719 5.79387 0.568217 6.24795C0.134523 7.43058 -0.0683029 8.85916 0.0205009 10.1062C0.160633 12.0747 0.818695 13.8003 2.02796 15.3704C2.60836 16.124 3.68318 17.079 4.54648 17.6082C7.35664 19.3309 10.8978 19.4634 13.8274 17.9556C14.7752 17.4678 15.4285 16.9868 16.2255 16.1899C17.1854 15.2301 17.8565 14.2085 18.3531 12.9507C18.8477 11.6979 19.0749 10.2222 18.9781 8.89066C18.8019 6.46672 17.8242 4.35425 16.1071 2.68754C14.9155 1.53094 13.4623 0.710399 11.9014 0.312773C10.796 0.0311622 9.7166 -0.059935 8.64628 0.0380697ZM11.209 3.65114C11.9995 3.75274 12.4823 3.85116 12.768 3.96895C13.5931 4.30917 14.4572 5.14126 14.8355 5.9598C15.1452 6.63009 15.3295 8.36112 15.2226 9.59559C15.1664 10.2444 15.0256 11.0854 14.9246 11.3759C14.6192 12.2545 13.6696 13.2221 12.7526 13.5893C12.1682 13.8233 11.1491 13.9561 9.71463 13.9851L8.64739 14.0067L8.01032 14.6717C7.65997 15.0374 7.32265 15.3628 7.26081 15.3948C7.03567 15.5112 6.73033 15.407 6.59083 15.1662C6.56446 15.1206 6.54065 14.8209 6.52925 14.3916L6.51068 13.6913L6.28412 13.6062C5.82365 13.4333 5.31664 13.0782 4.88454 12.626C4.20865 11.9186 3.97444 11.3504 3.81139 10.0227C3.74889 9.51363 3.74851 8.03487 3.81076 7.53448C3.97663 6.20134 4.2088 5.63841 4.88454 4.93118C5.50743 4.27931 6.14009 3.92246 6.92328 3.78123C7.25454 3.72147 7.98239 3.6303 8.49771 3.58395C8.8995 3.54782 10.7648 3.59402 11.209 3.65114ZM8.40486 4.6414C7.78498 4.69201 6.97063 4.82244 6.71117 4.91264C6.36033 5.0346 6.07817 5.23221 5.67501 5.6383C5.22769 6.08885 5.07923 6.35627 4.97271 6.90315C4.74742 8.05994 4.73405 9.24973 4.93323 10.4212C5.03088 10.9953 5.08948 11.1623 5.30776 11.4887C5.64474 11.9925 6.2397 12.4742 6.76082 12.6652L6.97386 12.7432L6.98367 13.8433C6.99332 14.9207 6.99507 14.9433 7.06891 14.9433C7.1186 14.9433 7.47118 14.6081 8.10406 13.9592L9.06382 12.9751L9.76195 12.9508C10.9996 12.9078 12.0435 12.7641 12.4307 12.5835C13.0718 12.2842 13.7557 11.5796 13.9361 11.0323C14.1286 10.4482 14.251 9.05759 14.1875 8.17488C14.1424 7.54778 14.0297 6.8086 13.9354 6.52291C13.7937 6.09286 13.2003 5.40876 12.7128 5.11333C12.4006 4.92416 12.1182 4.83852 11.5219 4.75214C10.5073 4.60515 9.3514 4.56408 8.40486 4.6414ZM10.1176 5.89893C10.9777 6.10515 11.6489 6.63287 12.0287 7.40157C12.234 7.81699 12.3103 8.11787 12.3468 8.65617L12.3713 9.01659L12.2731 9.0613C12.1907 9.09888 12.1637 9.0958 12.1043 9.04206C12.0493 8.9923 12.0277 8.90247 12.007 8.63697C11.9478 7.87901 11.7389 7.39507 11.2652 6.9186C10.8155 6.46635 10.3114 6.24163 9.60232 6.17724C9.27322 6.14734 9.15251 6.03092 9.29888 5.88452C9.38066 5.80278 9.74308 5.80917 10.1176 5.89893ZM7.85856 6.37113C8.07476 6.59971 8.56108 7.31099 8.59584 7.4494C8.64461 7.64374 8.57411 7.79771 8.32791 8.03435C8.04738 8.30404 8.03761 8.35592 8.19706 8.72963C8.35001 9.08804 8.61605 9.46914 8.88008 9.70808C9.18022 9.97963 9.70282 10.2455 9.93655 10.2455C10.0947 10.2455 10.1179 10.2317 10.3135 10.0221C10.5389 9.78061 10.6911 9.71005 10.8738 9.76245C11.0246 9.80568 11.7331 10.2959 11.9763 10.5254C12.1289 10.6693 12.1747 10.7377 12.1747 10.822C12.1747 11.1284 11.6887 11.7015 11.3271 11.8216C11.1501 11.8804 11.1327 11.8797 10.9064 11.8048C10.2465 11.5864 9.11433 10.9238 8.51629 10.406C7.99085 9.95103 7.45305 9.26151 7.05873 8.53719C6.83436 8.12508 6.492 7.30297 6.49293 7.17864C6.49582 6.79223 7.12607 6.16041 7.50858 6.16041C7.64366 6.16041 7.67999 6.18229 7.85856 6.37113ZM10.1148 6.62544C10.8523 6.81369 11.3939 7.35196 11.5616 8.06332C11.635 8.37449 11.634 8.66401 11.5592 8.7388C11.428 8.86993 11.2835 8.75834 11.2827 8.52526C11.282 8.32209 11.1906 7.93976 11.1007 7.76347C10.8893 7.34899 10.4191 7.02582 9.90238 6.93973C9.75285 6.91482 9.60124 6.87909 9.56551 6.86034C9.49097 6.82127 9.47924 6.67933 9.54509 6.61349C9.60611 6.55247 9.84901 6.55756 10.1148 6.62544ZM10.3443 7.43622C10.6746 7.60701 10.8389 7.86226 10.8666 8.24744C10.8843 8.49466 10.8838 8.49637 10.7805 8.52229C10.6982 8.54294 10.6623 8.53087 10.6085 8.4644C10.5711 8.4182 10.5401 8.33631 10.5396 8.28239C10.5383 8.12797 10.4116 7.88781 10.2831 7.7963C10.2185 7.75029 10.0953 7.70372 10.0095 7.6928C9.92359 7.68188 9.82409 7.65793 9.78836 7.63955C9.71289 7.60077 9.70242 7.45962 9.76979 7.38987C9.83022 7.32733 10.1898 7.35634 10.3443 7.43622Z" fill="#6F3FAA"/>
</svg>
